# xmcd
#
# Track frame offsets:
#	150
#	15337
#	35557
#	46352
#	62627
#	74125
#	89885
#	100825
#	117317
#	131877
#	150500
#	170420
#	187317
#	205737
#	221672
#	231657
#
# Disc length: 3313 seconds
# Revision: 0
# Processed by: cddbd v1.5.2PL0 Copyright (c) Steve Scherf et al.
# Submitted via: dBpowerAMP V12.0
#
DISCID=f60cef10
DTITLE=Norman Blake and Rich O'Brien - Be Ready Boys • Appalachia to Abilene
DYEAR=1999
DGENRE=Country
TTITLE0=Tennessee Wagoner
TTITLE1=Old Pal of Yesterday
TTITLE2=Texola Waltz
TTITLE3=When It's Lamplighting Time in the Valley
TTITLE4=Bowling Green Rag
TTITLE5=Homestead on the Farm
TTITLE6=Mexico
TTITLE7=Going Home
TTITLE8=Kentucky's Your Home
TTITLE9=Under the Double Eagle
TTITLE10=Grandpa's Barn
TTITLE11=Seamus O'Brien
TTITLE12=Flop-Eared Mule
TTITLE13=A Maiden's Prayer
TTITLE14=Callahan
TTITLE15=Heavenly Sunlight
EXTD=
EXTT0=
EXTT1=
EXTT2=
EXTT3=
EXTT4=
EXTT5=
EXTT6=
EXTT7=
EXTT8=
EXTT9=
EXTT10=
EXTT11=
EXTT12=
EXTT13=
EXTT14=
EXTT15=
PLAYORDER=
